<svg id="Capa_1" enable-background="new 0 0 512 512" height="512" viewBox="0 0 512 512" width="512" xmlns="http://www.w3.org/2000/svg"><g><g><g><g><g><g><g><g><g><g><circle cx="256" cy="256" fill="#ffce00" r="256"/></g></g></g></g></g></g></g></g></g><path d="m512 256c0-10.286-.607-20.43-1.786-30.398l-104.8-104.8-326.243 236.518 153.644 153.644c7.637.686 15.37 1.036 23.185 1.036 141.385 0 256-114.615 256-256z" fill="#ffa300"/><g><path d="m412.496 345.967h-312.992v-205.847c0-16.521 13.393-29.914 29.914-29.914h253.165c16.521 0 29.914 13.393 29.914 29.914v205.847z" fill="#636978"/></g><g><path d="m412.496 140.12c0-16.521-13.393-29.914-29.914-29.914h-126.582v235.761h156.496z" fill="#414952"/></g><g><path d="m122.877 136.289h266.247v196.128h-266.247z" fill="#fff"/></g><g><path d="m256 136.289h133.124v196.128h-133.124z" fill="#e9edf5"/></g><g><path d="m413.476 365.952h-314.952c-14.37 0-26.019-11.649-26.019-26.019v-20.727h366.989v20.727c0 14.37-11.648 26.019-26.018 26.019z" fill="#414952"/></g><g><path d="m256 319.207v46.746h157.476c14.37 0 26.019-11.649 26.019-26.019v-20.727z" fill="#23272b"/></g><g><path d="m333.701 228.834c0 42.913-34.788 77.701-77.701 77.701s-77.701-34.788-77.701-77.701 34.788-77.701 77.701-77.701z" fill="#ff6c52"/></g><g><path d="m333.701 228.834-77.701-77.581v155.279c42.858-.065 77.701-34.825 77.701-77.698z" fill="#ff432e"/></g><g><path d="m333.701 228.834c0-42.913-34.788-77.701-77.701-77.701v77.701z" fill="#7584f2"/></g></g></svg>