<svg height="512" viewBox="0 0 512 512" width="512" xmlns="http://www.w3.org/2000/svg"><g id="flat"><path d="m128 152-64 128h384l-64-128z" fill="#0296e5"/><circle cx="256" cy="128" fill="#e82f3e" r="104"/><circle cx="256" cy="128" fill="#cbcbcb" r="72"/><circle cx="256" cy="128" fill="#eaeae8" r="64"/><path d="m111.146 280.427h288.854v176h-288.854z" fill="#fbb540"/><path d="m224 328h80v128h-80z" fill="#d18d28"/><path d="m224 328h72v128h-72z" fill="#97661d"/><path d="m224 328 48 32v128l-48-32z" fill="#0296e5"/><path d="m112 280h288v16h-288z" fill="#ea9d2d"/><path d="m233 328 47 32v128h-8v-128l-48-32z" fill="#8feaff"/><path d="m295.992 160a7.966 7.966 0 0 1 -4.108-1.141l-40-24a8 8 0 0 1 -3.884-6.859v-32a8 8 0 0 1 16 0v27.471l36.116 21.669a8 8 0 0 1 -4.124 14.86z" fill="#e82f3e"/><path d="m272 360h8v128h-8z" fill="#0bafea"/></g></svg>