<svg id="Layer_1" height="512" viewBox="0 0 128 128" width="512" xmlns="http://www.w3.org/2000/svg" data-name="Layer 1"><path d="m6.5 6.5h115v97.308h-115z" fill="#e4e4e4"/><path d="m6.5 6.5h115v14.141h-115z" fill="#30ade0"/><circle cx="82.958" cy="13.571" fill="#e4e4e4" r="3.023"/><circle cx="94.792" cy="13.571" fill="#ffd169" r="3.023"/><circle cx="106.625" cy="13.571" fill="#e5634e" r="3.023"/><path d="m58 9.698h12v63.76h-12z" fill="#30ade0" transform="matrix(0 1 -1 0 105.578 -22.422)"/><path d="m98.531 100.78c-7.031 12.452-19.867 20.78-34.531 20.78s-27.5-8.328-34.528-20.78c7.023-12.452 19.857-20.78 34.528-20.78s27.5 8.328 34.531 20.78z" fill="#e5634e"/><path d="m64.015 110.813a10.032 10.032 0 0 1 -4.6-18.953 10.02 10.02 0 0 1 13.5 4.335 10.041 10.041 0 0 1 -4.334 13.5 9.909 9.909 0 0 1 -4.57 1.113z" fill="#bd5240"/><g fill="#e5634e"><path d="m64 70.688a1.75 1.75 0 0 1 -1.75-1.75v-9.875a1.75 1.75 0 0 1 3.5 0v9.875a1.75 1.75 0 0 1 -1.75 1.75z"/><path d="m76.731 73.344a1.751 1.751 0 0 1 -1.6-2.45l3.949-9.051a1.75 1.75 0 0 1 3.208 1.4l-3.949 9.051a1.751 1.751 0 0 1 -1.608 1.05z"/><path d="m87.341 80.87a1.75 1.75 0 0 1 -1.191-3.033l7.239-6.718a1.75 1.75 0 0 1 2.381 2.566l-7.239 6.715a1.744 1.744 0 0 1 -1.19.47z"/><path d="m51.269 73.344a1.751 1.751 0 0 1 -1.6-1.05l-3.949-9.051a1.75 1.75 0 0 1 3.208-1.4l3.949 9.051a1.751 1.751 0 0 1 -1.6 2.45z"/><path d="m40.659 80.87a1.744 1.744 0 0 1 -1.19-.467l-7.239-6.717a1.75 1.75 0 0 1 2.381-2.566l7.239 6.718a1.75 1.75 0 0 1 -1.191 3.033z"/></g></svg>